# xmcd
#
# Track frame offsets:
#   150
#   18198
#   34600
#   53283
#   69548
#   85052
#   99944
#   118052
#   134390
#   150343
#   167778
#   185630
#   198873
#   214939
#   232590
#   249754
#   267197
#   279878
#   297739
#   311282
#
# Disc length: 4334 seconds
#
# Revision: 0
# Processed by: cddbd v1.4PL0 Copyright (c) Steve Scherf et al.
# Submitted via: uFREEDB ActiveX Control 1.5
#
DISCID=fe10ec14
DTITLE=Carlos Vives - Dejame Entrar
DYEAR=2000
DGENRE=Classical
TTITLE0=Dejame Entrar
TTITLE1=Carito
TTITLE2=Amor Latino
TTITLE3=Luna Nueva
TTITLE4=Papadió
TTITLE5=Quiero Verte Sonreir
TTITLE6=A Las Doce Menos Diez
TTITLE7=Maria Tereza
TTITLE8=Decimas
TTITLE9=Santa eligia
TTITLE10=Dejame entrar
TTITLE11=El Testamento
TTITLE12=Jaime Molina
TTITLE13=La casa En El Aire
TTITLE14=La Vieja Sara
TTITLE15=El Almirante Padilha
TTITLE16=La despedida
TTITLE17=La Brasilera
TTITLE18=La Molinera
TTITLE19=El Mejoral
EXTD=
EXTT0=
EXTT1=
EXTT2=
EXTT3=
EXTT4=
EXTT5=
EXTT6=
EXTT7=
EXTT8=
EXTT9=
EXTT10=
EXTT11=
EXTT12=
EXTT13=
EXTT14=
EXTT15=
EXTT16=
EXTT17=
EXTT18=
EXTT19=
PLAYORDER=
